<?xml version="1.0" encoding="utf-8"?>
<!-- Generator: Adobe Illustrator 27.1.1, SVG Export Plug-In . SVG Version: 6.00 Build 0)  -->
<svg version="1.1" id="Capa_1" xmlns="http://www.w3.org/2000/svg" xmlns:xlink="http://www.w3.org/1999/xlink" x="0px" y="0px"
	 viewBox="0 0 512 512" style="enable-background:new 0 0 512 512;" xml:space="preserve">
<style type="text/css">
	.st0{fill:#ffdb70;}
</style>
<g>
	<path id="Path_2520" class="st0" d="M436.3,428.2h-75.9V314.7c0-27.1-0.5-61.9-39.5-61.9c-39.5,0-45.6,29.5-45.6,59.9v115.4h-75.8
		V194.8h72.8v31.9h1c14.9-24.2,42.5-38.7,71.9-37.7c76.9,0,91.1,48.3,91.1,111.1L436.3,428.2z M113.9,162.9c-24.3,0-44-18.8-44-42.1
		s19.7-42.1,44-42.1s44,18.8,44,42.1S138.2,162.9,113.9,162.9L113.9,162.9 M151.8,428.2H75.9V194.8h75.9V428.2z M474.1,11.5H37.8
		C17.2,11.3,0.3,27.1,0,46.8v418.4c0.3,19.7,17.2,35.5,37.8,35.3h436.3c20.7,0.2,37.6-15.5,37.9-35.3V46.8
		C511.7,27,494.7,11.2,474.1,11.5"/>
</g>
</svg>
