<?xml version="1.0" encoding="UTF-8" standalone="no"?>
<!-- Created with Inkscape (http://www.inkscape.org/) -->

<svg
   version="1.1"
   id="svg156"
   xml:space="preserve"
   width="32"
   height="32"
   viewBox="0 0 32 32"
   xmlns="http://www.w3.org/2000/svg"
   xmlns:svg="http://www.w3.org/2000/svg"><defs
     id="defs160"><clipPath
       clipPathUnits="userSpaceOnUse"
       id="clipPath170"><path
         d="M 0,24 H 24 V 0 H 0 Z"
         id="path168" /></clipPath></defs><g
     id="g162"
     transform="matrix(1.3333333,0,0,-1.3333333,0,32)"><g
       id="g164"><g
         id="g166"
         clip-path="url(#clipPath170)">
         <g
           id="g172"
           transform="translate(21.8667,13.3877)"><path
             d="m 0,0 -1.435,0.48 c -0.443,-1.202 -1.136,-2.307 -2.068,-3.238 l -6.364,-6.224 -6.34,6.201 c -1.225,1.224 -2.044,2.729 -2.419,4.364 -0.664,0.054 -1.334,-0.096 -1.904,-0.476 -0.837,-0.558 -1.337,-1.491 -1.337,-2.497 v -9.752 l 7.983,-2.281 8.02,2.006 7.997,-1.949 V -2.871 C 2.133,-1.539 1.238,-0.353 0,0 m -5.867,3.613 c 0,2.206 -1.794,4 -4,4 -2.205,0 -4,-1.794 -4,-4 0,-2.205 1.795,-4 4,-4 2.206,0 4,1.795 4,4 m 0.95,-4.957 -4.95,-4.841 -4.942,4.833 c -2.737,2.737 -2.737,7.179 -0.007,9.908 1.322,1.322 3.08,2.05 4.949,2.05 1.87,0 3.628,-0.728 4.95,-2.05 2.729,-2.729 2.729,-7.171 0,-9.9 m -2.95,4.957 c 0,-1.102 -0.897,-2 -2,-2 -1.102,0 -2,0.898 -2,2 0,1.103 0.898,2 2,2 1.103,0 2,-0.897 2,-2"
             style="fill:#ffdb70;fill-opacity:1;fill-rule:nonzero;stroke:none"
             id="path174" />
        </g>
      </g>
    </g>
  </g>
</svg>