<?xml version="1.0" encoding="utf-8"?>
<!-- Generator: Adobe Illustrator 27.1.1, SVG Export Plug-In . SVG Version: 6.00 Build 0)  -->
<svg version="1.1" id="Capa_1" xmlns="http://www.w3.org/2000/svg" xmlns:xlink="http://www.w3.org/1999/xlink" x="0px" y="0px"
	 viewBox="0 0 512 512" style="enable-background:new 0 0 512 512;" xml:space="preserve">
<style type="text/css">
	.st0{fill:#ffdb70;}
</style>
<path class="st0" d="M11.2,158.8C175.6,124.8,340,90.9,504.2,57.1c5.6-1.2,9.8,5.9,6.7,11.5C446.3,180.7,381.6,293,317,405.1
	c-5.4,9.3-16.4,11.6-24.2,5.1c-50.2-40.9-100.5-81.7-150.6-122.6c-2.2-1.9-2.1-5.6,0.3-7.1c66.9-42.5,133.6-85.3,200.5-127.8
	c4-2.5,1-9.6-3.3-7.6c-78.8,37-157.6,74.1-236.3,111.1c-1.2,0.5-2.4,0.3-3.4-0.3L6.3,187.1C-4.1,179.4-1,161.3,11.2,158.8z"/>
<path class="st0" d="M213.5,360.7c-31.2,24.5-62.4,49.1-93.6,73.6c-5.5,4.2-12.9,0.3-13.7-7.1c-5.1-55.2-10.3-110.4-15.3-165.8
	c-0.3-3,2.7-5.1,4.9-3.4l0.4,0.3c0.7,0.7,1.3,1.5,1.5,2.7c4.2,53.3,8.3,106.9,12.5,160.2c0.1,1.7,2.4,1.9,2.7,0.2
	c7.7-41.7,15.5-83.4,23.2-125.3c0.4-2.5,3.1-3.7,4.9-2.2c24.2,20.3,48.5,40.3,72.7,60.6C215.3,356.3,215.3,359.3,213.5,360.7z"/>
</svg>
